HIERARCHY
ROOT RightCollar
{
	OFFSET -0.263122 -0.003980 3.801207
	CHANNELS 6 Xposition Yposition Zposition Xrotation Yrotation Zrotation
	JOINT RightShoulder
	{
		OFFSET -1.381779 0.000000 0.000000
		CHANNELS 6 Xposition Yposition Zposition Xrotation Yrotation Zrotation
		JOINT RightElbow
		{
			OFFSET -2.454748 0.000000 0.000000
			CHANNELS 6 Xposition Yposition Zposition Xrotation Yrotation Zrotation
			JOINT RightWrist
			{
				OFFSET -2.035185 -0.001238 0.000000
				CHANNELS 6 Xposition Yposition Zposition Xrotation Yrotation Zrotation
				End Site
				{
					OFFSET -1.535909 0.000000 0.000000
				}
			}
		}
	}
}
MOTION
Frames: 40
Frame Time: 0.041667
-0.263122 -0.003981 3.801206 -23.944128 -5.557461 3.207259 -1.381779 0.000001 0.000001 -37.391662 -32.070624 11.139064 -2.454751 -0.000002 0.000001 -55.543635 -62.944503 11.797057 -2.035186 -0.001235 -0.000001 1888.158914 222.934724 -614.301750 
-0.263122 -0.003979 3.801208 -25.975602 -4.933331 1.665074 -1.381778 -0.000001 0.000001 -36.740414 -31.603070 11.591026 -2.454750 -0.000002 0.000000 -61.812795 -56.189682 10.699070 -2.035186 -0.001238 0.000002 1904.398809 209.684185 -584.577204 
-0.263122 -0.003977 3.801209 -25.993091 -4.342583 0.775605 -1.381780 -0.000001 0.000000 -39.489500 -33.325985 13.313806 -2.454751 0.000001 0.000000 -61.473574 -59.063624 16.590758 -2.035189 -0.001240 0.000001 1904.406240 179.928903 -538.114541 
-0.263122 -0.003983 3.801207 -27.567566 -3.532240 0.529058 -1.381779 0.000002 0.000001 -36.090327 -33.921042 17.300890 -2.454749 -0.000001 -0.000003 -52.945939 -56.837242 29.359811 -2.035184 -0.001238 0.000000 1904.610599 174.335196 -507.726429 
-0.263122 -0.003977 3.801207 -28.015080 -2.776570 -0.284781 -1.381778 -0.000002 0.000000 -34.450211 -33.965721 18.575686 -2.454750 -0.000002 -0.000002 -43.440949 -54.992086 41.369465 -2.035184 -0.001239 0.000000 1914.810421 173.440701 -499.195522 
-0.263121 -0.003977 3.801207 -28.858007 -2.323104 -0.602799 -1.381780 0.000002 0.000002 -32.767710 -32.225174 19.106785 -2.454745 -0.000002 -0.000003 -37.161615 -52.948077 46.992309 -2.035184 -0.001238 0.000002 1931.122661 170.247151 -492.120157 
-0.263121 -0.003977 3.801207 -30.271395 -2.025078 -0.876763 -1.381779 0.000000 0.000002 -29.310507 -29.987495 19.514382 -2.454751 0.000000 -0.000002 -32.762642 -47.405560 50.964577 -2.035186 -0.001238 -0.000001 1944.059805 166.566758 -488.715717 
-0.263121 -0.003981 3.801207 -31.291672 -2.324378 -0.868446 -1.381778 -0.000004 0.000001 -28.208458 -28.100790 18.205191 -2.454750 -0.000001 -0.000003 -29.125238 -45.278796 52.109931 -2.035187 -0.001238 0.000000 1955.086681 162.444752 -486.535958 
-0.263123 -0.003978 3.801208 -31.686419 -2.124360 -1.297987 -1.381780 0.000001 0.000001 -26.824793 -26.935179 16.613018 -2.454747 0.000001 0.000002 -26.120527 -41.968193 52.481053 -2.035188 -0.001243 0.000001 1961.782452 160.347652 -485.433456 
-0.263122 -0.003981 3.801208 -32.122817 -2.482288 -0.988403 -1.381780 0.000003 0.000001 -25.115212 -24.897831 15.155925 -2.454749 -0.000001 0.000004 -23.991779 -39.503304 51.336962 -2.035189 -0.001236 0.000003 1967.943392 158.297502 -485.630821 
-0.263121 -0.003980 3.801207 -32.639169 -2.955739 -0.426722 -1.381778 0.000001 0.000002 -24.486744 -23.326624 13.454520 -2.454749 -0.000003 0.000001 -20.844622 -35.402298 49.583021 -2.035185 -0.001240 0.000001 1971.845670 156.937366 -485.991510 
-0.263120 -0.003978 3.801208 -32.666257 -3.308018 -0.093267 -1.381780 0.000001 0.000000 -24.301687 -22.309696 11.513933 -2.454748 -0.000000 0.000003 -18.356372 -32.262583 47.305573 -2.035186 -0.001238 -0.000000 1975.239782 155.909600 -486.131665 
-0.263123 -0.003978 3.801207 -32.373901 -3.672025 0.249006 -1.381781 -0.000002 0.000000 -24.235342 -22.005263 9.391851 -2.454752 -0.000000 0.000003 -15.644757 -29.189817 44.763574 -2.035186 -0.001237 -0.000002 1977.890988 154.993836 -486.638356 
-0.263121 -0.003981 3.801206 -32.086593 -3.899127 0.405789 -1.381778 -0.000003 0.000004 -24.504958 -22.070146 7.375668 -2.454750 -0.000000 0.000005 -12.207548 -25.967758 41.581235 -2.035181 -0.001237 -0.000002 1979.643451 154.537838 -487.522784 
-0.263120 -0.003978 3.801207 -31.029529 -4.039041 0.848533 -1.381777 0.000001 0.000002 -25.279457 -22.347372 4.889052 -2.454751 -0.000002 0.000004 -8.112943 -22.905540 38.554669 -2.035188 -0.001237 -0.000001 1981.515688 153.904816 -489.192027 
-0.263122 -0.003979 3.801207 -30.088834 -4.239065 1.071257 -1.381779 -0.000001 -0.000000 -25.211055 -23.136663 2.501956 -2.454749 -0.000000 0.000002 -4.592124 -19.747528 35.203177 -2.035184 -0.001238 -0.000002 1982.511912 153.862415 -490.379497 
-0.263122 -0.003979 3.801207 -28.177119 -4.289641 1.122873 -1.381779 -0.000001 0.000001 -26.771442 -24.698755 -0.003988 -2.454748 -0.000002 0.000001 -0.761103 -17.356545 31.089396 -2.035187 -0.001238 -0.000002 1982.807195 153.805642 -491.447301 
-0.263122 -0.003981 3.801207 -26.442743 -4.540650 0.960287 -1.381778 0.000001 -0.000000 -28.386925 -26.542453 -3.156473 -2.454747 0.000001 0.000001 3.120903 -13.762297 26.914617 -2.035188 -0.001239 0.000000 1983.676650 154.001792 -493.061302 
-0.263121 -0.003982 3.801208 -23.655266 -4.730517 0.892810 -1.381779 0.000001 0.000001 -31.258217 -29.002349 -6.924410 -2.454746 0.000001 0.000002 3.136067 -11.912109 21.771600 -2.035188 -0.001241 -0.000003 1983.793146 154.060395 -493.496686 
-0.263121 -0.003976 3.801207 -20.067985 -4.741662 0.798729 -1.381778 -0.000000 0.000000 -36.719944 -31.897687 -11.020006 -2.454751 -0.000002 0.000000 3.668131 -9.965600 15.759690 -2.035182 -0.001236 0.000000 1983.577203 153.941781 -494.709290 
-0.263121 -0.003976 3.801207 -17.087509 -4.827620 0.686818 -1.381779 0.000002 0.000000 -41.191874 -34.900641 -15.056006 -2.454750 0.000002 0.000002 2.806184 -7.464013 9.157346 -2.035187 -0.001237 -0.000000 1984.155310 153.703258 -496.463447 
-0.263123 -0.003983 3.801207 -12.209796 -4.547376 0.829469 -1.381778 0.000003 -0.000000 -47.648875 -38.106110 -20.044059 -2.454748 -0.000003 0.000002 1.395752 -5.075567 3.751104 -2.035187 -0.001238 -0.000001 1984.301312 153.419900 -499.232078 
-0.263120 -0.003979 3.801207 -8.275945 -4.928041 1.122927 -1.381778 0.000002 0.000001 -54.419942 -40.036598 -26.287185 -2.454747 -0.000001 -0.000000 1.949942 -3.122668 0.580756 -2.035180 -0.001236 0.000001 1986.105575 152.255613 -505.510551 
-0.263123 -0.003979 3.801207 -4.400842 -5.311426 1.017759 -1.381779 0.000003 -0.000000 -59.617873 -40.979431 -32.827436 -2.454748 -0.000002 0.000001 2.993317 -1.610116 -0.517691 -2.035186 -0.001237 -0.000000 1986.267095 151.758361 -510.169505 
-0.263121 -0.003977 3.801207 -2.731400 -5.885114 2.201798 -1.381780 -0.000004 0.000000 -60.293645 -41.348432 -37.834344 -2.454750 -0.000001 0.000002 5.523396 0.729593 -0.904173 -2.035185 -0.001241 -0.000000 1987.413474 151.797594 -516.580157 
-0.263122 -0.003983 3.801207 -2.096243 -6.352046 1.939805 -1.381779 0.000002 -0.000000 -61.009927 -42.245034 -42.809993 -2.454750 -0.000001 0.000000 8.507284 3.457201 -1.566608 -2.035186 -0.001236 -0.000001 1988.096493 151.948459 -521.467075 
-0.263121 -0.003980 3.801207 -1.596809 -6.673677 2.187496 -1.381780 0.000005 -0.000001 -59.296526 -42.628491 -47.019063 -2.454749 -0.000002 0.000000 13.524113 5.308184 -0.713397 -2.035185 -0.001234 0.000001 1987.270750 153.221675 -528.864498 
-0.263121 -0.003978 3.801207 0.176265 -6.858114 2.719155 -1.381779 0.000003 0.000001 -57.829764 -43.615788 -51.180851 -2.454749 0.000001 0.000001 16.631377 6.909708 0.912510 -2.035184 -0.001233 0.000002 1987.230971 153.554278 -535.640046 
-0.263122 -0.003977 3.801207 1.365867 -7.121468 2.732390 -1.381779 0.000001 0.000000 -56.715794 -44.878076 -54.775170 -2.454750 0.000001 -0.000000 20.241281 8.305523 1.647747 -2.035185 -0.001243 0.000001 1986.556477 154.790241 -542.648421 
-0.263120 -0.003978 3.801208 3.274150 -7.476633 2.747572 -1.381779 0.000002 0.000000 -55.945885 -45.027954 -57.570913 -2.454748 0.000002 0.000000 23.803276 8.298052 3.627373 -2.035185 -0.001233 0.000000 1986.817663 157.309843 -550.973820 
-0.263123 -0.003984 3.801207 4.798305 -7.401216 3.167594 -1.381781 0.000001 0.000000 -53.468903 -45.102693 -58.818440 -2.454750 0.000003 -0.000001 30.190136 6.883138 6.927492 -2.035185 -0.001234 0.000002 1985.871272 161.696068 -558.383374 
-0.263123 -0.003979 3.801207 5.398931 -7.084748 3.838280 -1.381778 0.000001 -0.000000 -47.994964 -46.624022 -57.719361 -2.454749 0.000001 -0.000000 37.777141 5.673261 10.379931 -2.035186 -0.001235 0.000001 1985.501240 164.742537 -562.084899 
-0.263122 -0.003981 3.801207 5.952928 -7.153425 4.143232 -1.381780 0.000004 -0.000000 -43.283281 -46.168858 -56.278385 -2.454748 -0.000002 -0.000000 46.109320 3.066634 14.978087 -2.035184 -0.001240 0.000000 1984.437697 167.322901 -565.422184 
-0.263123 -0.003980 3.801207 6.108933 -7.166029 4.475336 -1.381779 -0.000001 0.000001 -38.344996 -46.496789 -54.188334 -2.454749 -0.000004 0.000001 51.513881 0.139343 19.345577 -2.035186 -0.001238 0.000001 1985.824062 169.992412 -568.672698 
-0.263121 -0.003985 3.801206 5.944927 -7.293426 4.565747 -1.381779 -0.000005 -0.000000 -34.266407 -45.368780 -52.728941 -2.454748 -0.000002 -0.000001 58.508316 -2.258654 25.203202 -2.035185 -0.001239 -0.000004 1983.391203 173.692790 -570.483190 
-0.263122 -0.003980 3.801207 5.979028 -7.318508 4.558808 -1.381779 -0.000000 -0.000000 -30.565831 -45.078941 -50.912934 -2.454750 -0.000001 -0.000001 62.709927 -6.099438 30.431990 -2.035185 -0.001235 0.000001 1982.726107 176.611043 -572.071073 
-0.263121 -0.003980 3.801207 6.294008 -7.464756 4.550922 -1.381778 0.000001 -0.000000 -27.261127 -45.337095 -49.334695 -2.454752 0.000002 -0.000000 67.274139 -8.387596 35.117957 -2.035184 -0.001243 0.000000 1980.552904 179.148909 -572.459574 
-0.263122 -0.003981 3.801207 6.608567 -7.643000 4.274387 -1.381779 0.000003 -0.000000 -24.790607 -45.728297 -47.942904 -2.454748 -0.000001 0.000000 71.188726 -10.654628 39.493718 -2.035183 -0.001237 0.000000 1978.911036 181.555294 -572.683058 
-0.263122 -0.003977 3.801207 6.584342 -7.785580 4.213640 -1.381778 0.000001 -0.000000 -22.678873 -45.768217 -46.975695 -2.454749 -0.000004 0.000001 75.315130 -12.515566 44.178135 -2.035186 -0.001237 0.000001 1977.460413 184.032453 -573.494867 
-0.263122 -0.003977 3.801206 6.510564 -7.891262 4.237221 -1.381779 -0.000007 -0.000000 -20.906709 -45.804119 -46.154484 -2.454751 0.000005 -0.000000 77.265962 -14.841943 47.540067 -2.035185 -0.001237 0.000003 1972.447164 185.992950 -574.479179 
